<?xml version="1.0" encoding="utf-8"?>
<!-- Generator: Adobe Illustrator 23.0.1, SVG Export Plug-In . SVG Version: 6.00 Build 0)  -->
<svg version="1.1" id="Layer_1" xmlns="http://www.w3.org/2000/svg" xmlns:xlink="http://www.w3.org/1999/xlink" x="0px" y="0px"
	 viewBox="0 0 1005 113.8" style="enable-background:new 0 0 1005 113.8;" xml:space="preserve">
<style type="text/css">
	.st0{fill:#13293D;}
	.st1{fill:#0086F2;}
</style>
<path class="st0" d="M340.5,35.1c-1.2-20-19-35.1-39.1-35.1h-25.3h-18.2v18.2v38.2v18.2v39.1h18.2V74.7h17.7l26.1,39.1c0,0,0,0,0,0
	H343c0,0,0,0,0,0l-27.5-41.2C330.8,67.3,341.5,52.4,340.5,35.1z M276.1,56.4V18.2h27.2c10.5,0,19.1,8.6,19.1,19.1
	c0,10.5-8.6,19.1-19.1,19.1H276.1z"/>
<path class="st0" d="M388.4,28.5c-23.6,0-42.6,19.1-42.6,42.6c0,23.6,19.1,42.6,42.6,42.6c23.6,0,42.6-19.1,42.6-42.6
	C431,47.6,411.9,28.5,388.4,28.5z M388.4,95.5c-13.5,0-24.4-10.9-24.4-24.4s10.9-24.4,24.4-24.4s24.4,10.9,24.4,24.4
	S401.9,95.5,388.4,95.5z"/>
<polygon class="st0" points="706,0 706,112.5 724.6,112.5 724.6,112.5 724.6,0 706,0 "/>
<path class="st0" d="M648.2,95.1c-16.8-2.5-30.4-16.6-32.3-33.5c-2.7-23.4,15.5-43.3,38.4-43.3c10.6,0,20.2,4.3,27.2,11.2l12.9-12.9
	c-13.1-13-32.5-19.7-53.2-15.1c-21.1,4.7-38,21.9-42.5,43c-7.8,36.8,20.1,69.3,55.6,69.3c15.8,0,30.1-6.4,40.4-16.8l-12.9-12.9
	C673.4,92.5,661.3,97.1,648.2,95.1z"/>
<path class="st0" d="M778.6,28.5c-23.6,0-42.6,19.1-42.6,42.6c0,23.6,19.1,42.6,42.6,42.6c23.6,0,42.6-19.1,42.6-42.6
	C821.2,47.6,802.1,28.5,778.6,28.5z M778.6,95.5c-13.5,0-24.4-10.9-24.4-24.4s10.9-24.4,24.4-24.4c13.5,0,24.4,10.9,24.4,24.4
	S792.1,95.5,778.6,95.5z"/>
<path class="st0" d="M476.8,95.7c-9.7,0-17.5-7.8-17.5-17.4V46.7h29.6V28.5h-29.6V0.1h-18.2V77c0,18.4,13.5,34.6,31.7,36.5
	c7.2,0.8,14.6-0.5,20-2.7l-3.9-16.9C487.9,94.1,482.5,95.7,476.8,95.7z"/>
<path class="st0" d="M567.1,29.8h-1.4v1.4v5c-0.5-0.3-1-0.7-1.5-1c-7.3-4.7-16-7.2-25.4-6.7c-21.3,1.2-38.7,18.4-40.1,39.7
	c-1.6,24.8,18.1,45.5,42.6,45.5c8.3,0,16-2.4,22.5-6.5c0.6-0.4,1.3-0.8,1.9-1.3v5v1.4h12.7h4.2h1.4v-1.4V88.6V31.2v-1.4h-1.4H567.1z
	 M563,85.2C563,85.2,563,85.2,563,85.2c-0.6,0.9-1.3,1.7-2,2.4c-0.1,0.1-0.2,0.2-0.3,0.3c-1.5,1.5-3.1,2.8-4.9,3.9
	c-0.2,0.1-0.4,0.2-0.5,0.3c-0.8,0.5-1.6,0.9-2.4,1.2c-0.2,0.1-0.3,0.1-0.5,0.2c-1,0.4-1.9,0.8-2.9,1c-0.2,0.1-0.4,0.1-0.6,0.2
	c-0.8,0.2-1.7,0.4-2.5,0.5c-0.3,0-0.6,0.1-0.9,0.1c-1.1,0.1-2.1,0.2-3.2,0.2c-4.4,0-8.5-1.1-12.1-2.9c-0.7-0.4-1.4-0.8-2.1-1.2
	c-6.7-4.4-11.2-11.8-11.2-20.2c0-5.1,1.6-9.7,4.3-13.6c2.3-3.2,5.3-5.9,8.9-7.8c3.6-1.9,7.7-2.9,12.1-2.9c1.1,0,2.2,0.1,3.2,0.2
	c0.3,0,0.6,0.1,0.9,0.1c0.9,0.1,1.7,0.3,2.5,0.5c0.2,0.1,0.4,0.1,0.6,0.2c1,0.3,2,0.6,2.9,1c0.2,0.1,0.3,0.1,0.5,0.2
	c0.8,0.4,1.6,0.8,2.4,1.2c0.2,0.1,0.4,0.2,0.5,0.3c1.8,1.1,3.5,2.4,4.9,3.9c0.1,0.1,0.2,0.2,0.3,0.3c0.7,0.7,1.4,1.5,2,2.3
	c0,0,0,0,0,0.1c2.9,4,4.6,8.8,4.6,14S565.9,81.2,563,85.2z"/>
<path class="st0" d="M988.1,0h-1.4v1.4v34.9c-0.5-0.3-1-0.7-1.5-1c-7.3-4.7-16-7.2-25.4-6.7c-21.3,1.2-38.7,18.4-40.1,39.7
	c-1.6,24.8,18.1,45.5,42.6,45.5c8.3,0,16-2.4,22.5-6.5c0.6-0.4,1.3-0.8,1.9-1.3v5v1.4h12.7h4.2h1.4v-1.4V88.6V1.4V0h-1.4H988.1z
	 M984,85.2C984,85.2,984,85.2,984,85.2c-0.6,0.9-1.3,1.7-2,2.4c-0.1,0.1-0.2,0.2-0.3,0.3c-1.5,1.5-3.1,2.8-4.9,3.9
	c-0.2,0.1-0.4,0.2-0.5,0.3c-0.8,0.5-1.6,0.9-2.4,1.2c-0.2,0.1-0.3,0.1-0.5,0.2c-1,0.4-1.9,0.8-2.9,1c-0.2,0.1-0.4,0.1-0.6,0.2
	c-0.8,0.2-1.7,0.4-2.5,0.5c-0.3,0-0.6,0.1-0.9,0.1c-1.1,0.1-2.1,0.2-3.2,0.2c-4.4,0-8.5-1.1-12.1-2.9c-0.7-0.4-1.4-0.8-2.1-1.2
	c-6.7-4.4-11.2-11.8-11.2-20.2c0-5.1,1.6-9.7,4.3-13.6c2.3-3.2,5.3-5.9,8.9-7.8c3.6-1.9,7.7-2.9,12.1-2.9c1.1,0,2.2,0.1,3.2,0.2
	c0.3,0,0.6,0.1,0.9,0.1c0.9,0.1,1.7,0.3,2.5,0.5c0.2,0.1,0.4,0.1,0.6,0.2c1,0.3,2,0.6,2.9,1c0.2,0.1,0.3,0.1,0.5,0.2
	c0.8,0.4,1.6,0.8,2.4,1.2c0.2,0.1,0.4,0.2,0.5,0.3c1.8,1.1,3.5,2.4,4.9,3.9c0.1,0.1,0.2,0.2,0.3,0.3c0.7,0.7,1.4,1.5,2,2.3
	c0,0,0,0,0,0.1c2.9,4,4.6,8.8,4.6,14S986.9,81.2,984,85.2z"/>
<path class="st1" d="M195.8,56.9L195.8,56.9c0-8.6-6.9-15.5-15.5-15.5H89.9c-2.9,0-5.2-2.3-5.2-5.2v0c0-2.9,2.3-5.2,5.2-5.2h57.7
	c8.6,0,15.5-6.9,15.5-15.5v0c0-8.6-6.9-15.5-15.5-15.5L84.7,0c-2.9,0-5.2,2.3-5.2,5.2v10.4c0,2.9-2.3,5.2-5.2,5.2H15.5
	C6.9,20.7,0,27.6,0,36.2v0c0,8.6,6.9,15.5,15.5,15.5h53.7c2.9,0,5.2,2.3,5.2,5.2v0c0,2.9-2.3,5.2-5.2,5.2H45.8
	c-8.6,0-15.5,6.9-15.5,15.5v0c0,8.6,6.9,15.5,15.5,15.5h28.6c2.9,0,5.2,2.3,5.2,5.2v10.4c0,2.9,2.3,5.2,5.2,5.2h28.7
	c8.6,0,15.5-6.9,15.5-15.5v0c0-8.6-6.9-15.5-15.5-15.5H89.9c-2.9,0-5.2-2.3-5.2-5.2v0c0-2.9,2.3-5.2,5.2-5.2h90.3
	C188.8,72.4,195.8,65.5,195.8,56.9z"/>
<path class="st0" d="M890.5,33.5v42c0,11.1-9,20-20,20s-20-9-20-20v-42h-18.2v42c0,21.1,17.1,38.3,38.3,38.3s38.3-17.1,38.3-38.3
	v-42H890.5z"/>
</svg>
